<svg width="50" height="61" viewBox="0 0 50 61" fill="none" xmlns="http://www.w3.org/2000/svg">
<path d="M23.5039 39.326C21.9977 38.3829 15.6803 34.5165 15.6803 34.5165C15.6803 34.5165 9.36284 30.65 7.85494 29.707C7.83136 29.6891 7.80378 29.6773 7.77461 29.6726C7.74544 29.6679 7.71555 29.6703 7.68754 29.6798C7.65953 29.6892 7.63426 29.7054 7.61392 29.7268C7.59357 29.7483 7.57878 29.7743 7.57082 29.8028V29.8969C7.58983 30.2766 7.55817 30.657 7.47668 31.0283C7.46289 31.161 7.49621 31.2943 7.57082 31.4048L9.36284 34.3282C9.46434 34.4783 9.5335 34.6479 9.56591 34.8262C9.59832 35.0044 9.59328 35.1875 9.55111 35.3637L8.32562 40.2657C8.23148 40.4557 8.32562 40.6422 8.51561 40.8322C10.09 42.062 11.8002 43.1072 13.6127 43.9473C13.7028 44.0017 13.8095 44.0222 13.9133 44.0049C14.0172 43.9876 14.1115 43.9338 14.1792 43.8532L17.9447 40.4591C18.0707 40.3444 18.2209 40.2595 18.3841 40.2107C18.5473 40.1618 18.7195 40.1502 18.8878 40.1767L22.2818 40.4591C22.415 40.4727 22.5488 40.4394 22.6601 40.365L23.6956 39.7984C23.5998 39.6153 23.6939 39.4253 23.5039 39.326Z" fill="white"/>
<path d="M12.8493 45.5561C12.8153 45.3602 12.7387 45.1742 12.6248 45.0112C12.5109 44.8482 12.3626 44.7123 12.1903 44.613C11.4864 44.3196 10.8217 43.9395 10.2117 43.4817C9.55831 43.0793 8.9296 42.638 8.32901 42.1603C8.1714 42.0371 7.98546 41.9554 7.78814 41.9225C7.59082 41.8896 7.38841 41.9066 7.19937 41.9721L7.00938 42.0662C6.25736 42.3144 5.57904 42.746 5.03575 43.3222C4.49246 43.8984 4.10134 44.6008 3.89773 45.3661L0.0295653 59.5089C-0.01098 59.6099 -0.00978029 59.7229 0.032901 59.823C0.0755823 59.9231 0.156256 60.0022 0.257205 60.0429C0.30468 60.0615 0.355128 60.0714 0.406113 60.072C0.569729 60.0963 0.736709 60.063 0.878508 59.9779L11.6238 50.0747C12.1776 49.5261 12.6006 48.8597 12.8614 48.1251C13.1221 47.3906 13.2139 46.6066 13.13 45.8317L12.8493 45.5561Z" fill="white"/>
<path d="M45.0955 8.88044C46.321 7.27669 49.7167 2.65714 49.7167 2.65714C49.8791 2.51906 49.98 2.32218 49.9974 2.10973C50.0147 1.89729 49.947 1.68665 49.8092 1.52408C49.7806 1.49051 49.7491 1.45958 49.715 1.43165C49.495 1.25183 49.2378 1.12321 48.9619 1.05511L42.2679 0.0161778C41.9658 -0.0256597 41.658 0.0140031 41.3763 0.131062C41.0946 0.24812 40.8494 0.438322 40.6659 0.681982L37.0836 5.58052C36.8266 5.91964 36.7124 6.34584 36.7655 6.76803C36.8186 7.19021 37.0347 7.57488 37.3677 7.8398C37.4618 7.8398 37.4618 7.93565 37.3677 8.02979C37.3677 8.02979 37.2736 8.12393 37.2736 8.02979L35.4747 7.74567L32.8337 7.46154C32.4948 7.41219 32.1488 7.45623 31.833 7.58894C31.5172 7.72164 31.2436 7.93797 31.0417 8.21464L20.3957 22.7322C20.3534 22.8167 20.2794 22.8809 20.1899 22.9107C20.1003 22.9406 20.0026 22.9336 19.9181 22.8914C19.8855 22.8749 19.8555 22.8536 19.8291 22.8281L9.64353 16.6099C9.48901 16.5169 9.31763 16.4553 9.13924 16.4287C8.96084 16.4021 8.77894 16.411 8.604 16.4549C8.42905 16.4988 8.2645 16.5768 8.1198 16.6845C7.97509 16.7922 7.85309 16.9274 7.7608 17.0823C7.59449 17.4237 7.56016 17.8146 7.66441 18.1798C7.76866 18.5449 8.00413 18.8587 8.32562 19.0609L8.60803 19.2509C8.66594 19.2954 8.7131 19.3523 8.74599 19.4175C8.77888 19.4827 8.79666 19.5544 8.79801 19.6274L8.51389 21.7019C8.51389 21.8919 8.32391 21.9843 8.23148 21.8919H8.13906L6.63287 21.0361C6.3564 20.8605 6.04807 20.7412 5.72547 20.6848C5.40288 20.6284 5.07233 20.6361 4.75271 20.7075C4.4331 20.7788 4.13066 20.9124 3.86268 21.1007C3.5947 21.2889 3.36643 21.5281 3.19088 21.8046L3.14125 21.885C2.75347 22.3392 2.56196 22.9289 2.60882 23.5242C2.65568 24.1196 2.93708 24.672 3.39114 25.06L3.42537 25.0891C3.55663 25.1753 3.68239 25.2696 3.80192 25.3715L11.4407 30.0869C12.6599 30.9187 14.1128 31.3399 15.5879 31.2891C17.063 31.2383 18.4834 30.7182 19.6426 29.8045C20.0757 29.3229 20.6713 29.0179 21.3152 28.9481C21.9592 28.8783 22.6062 29.0486 23.1325 29.4262C23.4119 29.6103 23.7392 29.7084 24.0739 29.7084C24.4085 29.7084 24.7358 29.6103 25.0152 29.4262L26.898 28.2966C27.1601 28.1116 27.4731 28.0123 27.794 28.0123C28.1148 28.0123 28.4278 28.1116 28.69 28.2966L34.4477 31.7933C34.6377 31.8892 35.0143 31.8892 35.1101 31.6992L49.2495 12.4662C50.3757 10.9549 49.5267 10.1984 48.8661 10.0101H48.7719L45.3779 9.5394C45.282 9.5394 45.282 9.5394 45.1879 9.44526C45.1038 9.40273 45.04 9.32857 45.0104 9.23905C44.9809 9.14953 44.9881 9.05196 45.0304 8.96773C45.0473 8.93535 45.0693 8.90588 45.0955 8.88044V8.88044Z" fill="white"/>
</svg>
